<svg class="rich-terminal" viewBox="0 0 1861 855.1999999999999" xmlns="http://www.w3.org/2000/svg">
    <!-- Generated with Rich https://www.textualize.io -->
    <style>

    @font-face {
        font-family: "Fira Code";
        src: local("FiraCode-Regular"),
                url("https://cdnjs.cloudflare.com/ajax/libs/firacode/6.2.0/woff2/FiraCode-Regular.woff2") format("woff2"),
                url("https://cdnjs.cloudflare.com/ajax/libs/firacode/6.2.0/woff/FiraCode-Regular.woff") format("woff");
        font-style: normal;
        font-weight: 400;
    }
    @font-face {
        font-family: "Fira Code";
        src: local("FiraCode-Bold"),
                url("https://cdnjs.cloudflare.com/ajax/libs/firacode/6.2.0/woff2/FiraCode-Bold.woff2") format("woff2"),
                url("https://cdnjs.cloudflare.com/ajax/libs/firacode/6.2.0/woff/FiraCode-Bold.woff") format("woff");
        font-style: bold;
        font-weight: 700;
    }

    .terminal-2777689899-matrix {
        font-family: Fira Code, monospace;
        font-size: 20px;
        line-height: 24.4px;
        font-variant-east-asian: full-width;
    }

    .terminal-2777689899-title {
        font-size: 18px;
        font-weight: bold;
        font-family: arial;
    }

    .terminal-2777689899-r1 { fill: #c5c8c6 }
.terminal-2777689899-r2 { fill: #e0e0e0 }
.terminal-2777689899-r3 { fill: #e0e0e0;font-weight: bold }
.terminal-2777689899-r4 { fill: #121212 }
.terminal-2777689899-r5 { fill: #191919 }
.terminal-2777689899-r6 { fill: #7f7f7f }
.terminal-2777689899-r7 { fill: #737373 }
.terminal-2777689899-r8 { fill: #2d2d2d }
.terminal-2777689899-r9 { fill: #272727;font-weight: bold }
.terminal-2777689899-r10 { fill: #0d0d0d }
.terminal-2777689899-r11 { fill: #ffa62b;font-weight: bold }
.terminal-2777689899-r12 { fill: #495259 }
    </style>

    <defs>
    <clipPath id="terminal-2777689899-clip-terminal">
      <rect x="0" y="0" width="1841.1999999999998" height="804.1999999999999" />
    </clipPath>
    <clipPath id="terminal-2777689899-line-0">
    <rect x="0" y="1.5" width="1842.2" height="24.65"/>
            </clipPath>
<clipPath id="terminal-2777689899-line-1">
    <rect x="0" y="25.9" width="1842.2" height="24.65"/>
            </clipPath>
<clipPath id="terminal-2777689899-line-2">
    <rect x="0" y="50.3" width="1842.2" height="24.65"/>
            </clipPath>
<clipPath id="terminal-2777689899-line-3">
    <rect x="0" y="74.7" width="1842.2" height="24.65"/>
            </clipPath>
<clipPath id="terminal-2777689899-line-4">
    <rect x="0" y="99.1" width="1842.2" height="24.65"/>
            </clipPath>
<clipPath id="terminal-2777689899-line-5">
    <rect x="0" y="123.5" width="1842.2" height="24.65"/>
            </clipPath>
<clipPath id="terminal-2777689899-line-6">
    <rect x="0" y="147.9" width="1842.2" height="24.65"/>
            </clipPath>
<clipPath id="terminal-2777689899-line-7">
    <rect x="0" y="172.3" width="1842.2" height="24.65"/>
            </clipPath>
<clipPath id="terminal-2777689899-line-8">
    <rect x="0" y="196.7" width="1842.2" height="24.65"/>
            </clipPath>
<clipPath id="terminal-2777689899-line-9">
    <rect x="0" y="221.1" width="1842.2" height="24.65"/>
            </clipPath>
<clipPath id="terminal-2777689899-line-10">
    <rect x="0" y="245.5" width="1842.2" height="24.65"/>
            </clipPath>
<clipPath id="terminal-2777689899-line-11">
    <rect x="0" y="269.9" width="1842.2" height="24.65"/>
            </clipPath>
<clipPath id="terminal-2777689899-line-12">
    <rect x="0" y="294.3" width="1842.2" height="24.65"/>
            </clipPath>
<clipPath id="terminal-2777689899-line-13">
    <rect x="0" y="318.7" width="1842.2" height="24.65"/>
            </clipPath>
<clipPath id="terminal-2777689899-line-14">
    <rect x="0" y="343.1" width="1842.2" height="24.65"/>
            </clipPath>
<clipPath id="terminal-2777689899-line-15">
    <rect x="0" y="367.5" width="1842.2" height="24.65"/>
            </clipPath>
<clipPath id="terminal-2777689899-line-16">
    <rect x="0" y="391.9" width="1842.2" height="24.65"/>
            </clipPath>
<clipPath id="terminal-2777689899-line-17">
    <rect x="0" y="416.3" width="1842.2" height="24.65"/>
            </clipPath>
<clipPath id="terminal-2777689899-line-18">
    <rect x="0" y="440.7" width="1842.2" height="24.65"/>
            </clipPath>
<clipPath id="terminal-2777689899-line-19">
    <rect x="0" y="465.1" width="1842.2" height="24.65"/>
            </clipPath>
<clipPath id="terminal-2777689899-line-20">
    <rect x="0" y="489.5" width="1842.2" height="24.65"/>
            </clipPath>
<clipPath id="terminal-2777689899-line-21">
    <rect x="0" y="513.9" width="1842.2" height="24.65"/>
            </clipPath>
<clipPath id="terminal-2777689899-line-22">
    <rect x="0" y="538.3" width="1842.2" height="24.65"/>
            </clipPath>
<clipPath id="terminal-2777689899-line-23">
    <rect x="0" y="562.7" width="1842.2" height="24.65"/>
            </clipPath>
<clipPath id="terminal-2777689899-line-24">
    <rect x="0" y="587.1" width="1842.2" height="24.65"/>
            </clipPath>
<clipPath id="terminal-2777689899-line-25">
    <rect x="0" y="611.5" width="1842.2" height="24.65"/>
            </clipPath>
<clipPath id="terminal-2777689899-line-26">
    <rect x="0" y="635.9" width="1842.2" height="24.65"/>
            </clipPath>
<clipPath id="terminal-2777689899-line-27">
    <rect x="0" y="660.3" width="1842.2" height="24.65"/>
            </clipPath>
<clipPath id="terminal-2777689899-line-28">
    <rect x="0" y="684.7" width="1842.2" height="24.65"/>
            </clipPath>
<clipPath id="terminal-2777689899-line-29">
    <rect x="0" y="709.1" width="1842.2" height="24.65"/>
            </clipPath>
<clipPath id="terminal-2777689899-line-30">
    <rect x="0" y="733.5" width="1842.2" height="24.65"/>
            </clipPath>
<clipPath id="terminal-2777689899-line-31">
    <rect x="0" y="757.9" width="1842.2" height="24.65"/>
            </clipPath>
    </defs>

    <rect fill="#292929" stroke="rgba(255,255,255,0.35)" stroke-width="1" x="1" y="1" width="1859" height="853.2" rx="8"/><text class="terminal-2777689899-title" fill="#c5c8c6" text-anchor="middle" x="929" y="27">TasksTUI</text>
            <g transform="translate(26,22)">
            <circle cx="0" cy="0" r="7" fill="#ff5f57"/>
            <circle cx="22" cy="0" r="7" fill="#febc2e"/>
            <circle cx="44" cy="0" r="7" fill="#28c840"/>
            </g>
        
    <g transform="translate(9, 41)" clip-path="url(#terminal-2777689899-clip-terminal)">
    <rect fill="#242f38" x="0" y="1.5" width="12.2" height="24.65" shape-rendering="crispEdges"/><rect fill="#242f38" x="12.2" y="1.5" width="12.2" height="24.65" shape-rendering="crispEdges"/><rect fill="#242f38" x="24.4" y="1.5" width="61" height="24.65" shape-rendering="crispEdges"/><rect fill="#242f38" x="85.4" y="1.5" width="12.2" height="24.65" shape-rendering="crispEdges"/><rect fill="#242f38" x="97.6" y="1.5" width="756.4" height="24.65" shape-rendering="crispEdges"/><rect fill="#242f38" x="854" y="1.5" width="97.6" height="24.65" shape-rendering="crispEdges"/><rect fill="#242f38" x="951.6" y="1.5" width="768.6" height="24.65" shape-rendering="crispEdges"/><rect fill="#242f38" x="1720.2" y="1.5" width="12.2" height="24.65" shape-rendering="crispEdges"/><rect fill="#242f38" x="1732.4" y="1.5" width="0" height="24.65" shape-rendering="crispEdges"/><rect fill="#242f38" x="1732.4" y="1.5" width="97.6" height="24.65" shape-rendering="crispEdges"/><rect fill="#242f38" x="1830" y="1.5" width="12.2" height="24.65" shape-rendering="crispEdges"/><rect fill="#121212" x="0" y="25.9" width="97.6" height="24.65" shape-rendering="crispEdges"/><rect fill="#121212" x="97.6" y="25.9" width="817.4" height="24.65" shape-rendering="crispEdges"/><rect fill="#242f38" x="915" y="25.9" width="219.6" height="24.65" shape-rendering="crispEdges"/><rect fill="#242f38" x="1134.6" y="25.9" width="122" height="24.65" shape-rendering="crispEdges"/><rect fill="#242f38" x="1256.6" y="25.9" width="146.4" height="24.65" shape-rendering="crispEdges"/><rect fill="#242f38" x="1403" y="25.9" width="158.6" height="24.65" shape-rendering="crispEdges"/><rect fill="#242f38" x="1561.6" y="25.9" width="97.6" height="24.65" shape-rendering="crispEdges"/><rect fill="#222a31" x="1659.2" y="25.9" width="183" height="24.65" shape-rendering="crispEdges"/><rect fill="#191919" x="0" y="50.3" width="12.2" height="24.65" shape-rendering="crispEdges"/><rect fill="#1e1e1e" x="12.2" y="50.3" width="890.6" height="24.65" shape-rendering="crispEdges"/><rect fill="#121212" x="902.8" y="50.3" width="12.2" height="24.65" shape-rendering="crispEdges"/><rect fill="#153854" x="915" y="50.3" width="219.6" height="24.65" shape-rendering="crispEdges"/><rect fill="#1e1e1e" x="1134.6" y="50.3" width="122" height="24.65" shape-rendering="crispEdges"/><rect fill="#1e1e1e" x="1256.6" y="50.3" width="146.4" height="24.65" shape-rendering="crispEdges"/><rect fill="#1e1e1e" x="1403" y="50.3" width="158.6" height="24.65" shape-rendering="crispEdges"/><rect fill="#1e1e1e" x="1561.6" y="50.3" width="97.6" height="24.65" shape-rendering="crispEdges"/><rect fill="#1e1e1e" x="1659.2" y="50.3" width="183" height="24.65" shape-rendering="crispEdges"/><rect fill="#191919" x="0" y="74.7" width="12.2" height="24.65" shape-rendering="crispEdges"/><rect fill="#1e1e1e" x="12.2" y="74.7" width="24.4" height="24.65" shape-rendering="crispEdges"/><rect fill="#1e1e1e" x="36.6" y="74.7" width="195.2" height="24.65" shape-rendering="crispEdges"/><rect fill="#1e1e1e" x="231.8" y="74.7" width="646.6" height="24.65" shape-rendering="crispEdges"/><rect fill="#1e1e1e" x="878.4" y="74.7" width="24.4" height="24.65" shape-rendering="crispEdges"/><rect fill="#121212" x="902.8" y="74.7" width="12.2" height="24.65" shape-rendering="crispEdges"/><rect fill="#121212" x="915" y="74.7" width="927.2" height="24.65" shape-rendering="crispEdges"/><rect fill="#191919" x="0" y="99.1" width="12.2" height="24.65" shape-rendering="crispEdges"/><rect fill="#1e1e1e" x="12.2" y="99.1" width="890.6" height="24.65" shape-rendering="crispEdges"/><rect fill="#121212" x="902.8" y="99.1" width="12.2" height="24.65" shape-rendering="crispEdges"/><rect fill="#121212" x="915" y="99.1" width="927.2" height="24.65" shape-rendering="crispEdges"/><rect fill="#191919" x="0" y="123.5" width="12.2" height="24.65" shape-rendering="crispEdges"/><rect fill="#1e1e1e" x="12.2" y="123.5" width="890.6" height="24.65" shape-rendering="crispEdges"/><rect fill="#121212" x="902.8" y="123.5" width="12.2" height="24.65" shape-rendering="crispEdges"/><rect fill="#121212" x="915" y="123.5" width="927.2" height="24.65" shape-rendering="crispEdges"/><rect fill="#191919" x="0" y="147.9" width="12.2" height="24.65" shape-rendering="crispEdges"/><rect fill="#1e1e1e" x="12.2" y="147.9" width="24.4" height="24.65" shape-rendering="crispEdges"/><rect fill="#1e1e1e" x="36.6" y="147.9" width="97.6" height="24.65" shape-rendering="crispEdges"/><rect fill="#1e1e1e" x="134.2" y="147.9" width="744.2" height="24.65" shape-rendering="crispEdges"/><rect fill="#1e1e1e" x="878.4" y="147.9" width="24.4" height="24.65" shape-rendering="crispEdges"/><rect fill="#121212" x="902.8" y="147.9" width="12.2" height="24.65" shape-rendering="crispEdges"/><rect fill="#121212" x="915" y="147.9" width="927.2" height="24.65" shape-rendering="crispEdges"/><rect fill="#191919" x="0" y="172.3" width="12.2" height="24.65" shape-rendering="crispEdges"/><rect fill="#1e1e1e" x="12.2" y="172.3" width="890.6" height="24.65" shape-rendering="crispEdges"/><rect fill="#121212" x="902.8" y="172.3" width="12.2" height="24.65" shape-rendering="crispEdges"/><rect fill="#121212" x="915" y="172.3" width="927.2" height="24.65" shape-rendering="crispEdges"/><rect fill="#191919" x="0" y="196.7" width="12.2" height="24.65" shape-rendering="crispEdges"/><rect fill="#1e1e1e" x="12.2" y="196.7" width="890.6" height="24.65" shape-rendering="crispEdges"/><rect fill="#121212" x="902.8" y="196.7" width="12.2" height="24.65" shape-rendering="crispEdges"/><rect fill="#121212" x="915" y="196.7" width="927.2" height="24.65" shape-rendering="crispEdges"/><rect fill="#191919" x="0" y="221.1" width="12.2" height="24.65" shape-rendering="crispEdges"/><rect fill="#1e1e1e" x="12.2" y="221.1" width="24.4" height="24.65" shape-rendering="crispEdges"/><rect fill="#1e1e1e" x="36.6" y="221.1" width="122" height="24.65" shape-rendering="crispEdges"/><rect fill="#1e1e1e" x="158.6" y="221.1" width="719.8" height="24.65" shape-rendering="crispEdges"/><rect fill="#1e1e1e" x="878.4" y="221.1" width="24.4" height="24.65" shape-rendering="crispEdges"/><rect fill="#121212" x="902.8" y="221.1" width="12.2" height="24.65" shape-rendering="crispEdges"/><rect fill="#121212" x="915" y="221.1" width="927.2" height="24.65" shape-rendering="crispEdges"/><rect fill="#191919" x="0" y="245.5" width="12.2" height="24.65" shape-rendering="crispEdges"/><rect fill="#1e1e1e" x="12.2" y="245.5" width="890.6" height="24.65" shape-rendering="crispEdges"/><rect fill="#121212" x="902.8" y="245.5" width="12.2" height="24.65" shape-rendering="crispEdges"/><rect fill="#121212" x="915" y="245.5" width="927.2" height="24.65" shape-rendering="crispEdges"/><rect fill="#191919" x="0" y="269.9" width="12.2" height="24.65" shape-rendering="crispEdges"/><rect fill="#1e1e1e" x="12.2" y="269.9" width="890.6" height="24.65" shape-rendering="crispEdges"/><rect fill="#121212" x="902.8" y="269.9" width="12.2" height="24.65" shape-rendering="crispEdges"/><rect fill="#121212" x="915" y="269.9" width="927.2" height="24.65" shape-rendering="crispEdges"/><rect fill="#191919" x="0" y="294.3" width="12.2" height="24.65" shape-rendering="crispEdges"/><rect fill="#1e1e1e" x="12.2" y="294.3" width="24.4" height="24.65" shape-rendering="crispEdges"/><rect fill="#1e1e1e" x="36.6" y="294.3" width="73.2" height="24.65" shape-rendering="crispEdges"/><rect fill="#1e1e1e" x="109.8" y="294.3" width="744.2" height="24.65" shape-rendering="crispEdges"/><rect fill="#1e1e1e" x="854" y="294.3" width="12.2" height="24.65" shape-rendering="crispEdges"/><rect fill="#1e1e1e" x="866.2" y="294.3" width="12.2" height="24.65" shape-rendering="crispEdges"/><rect fill="#1e1e1e" x="878.4" y="294.3" width="24.4" height="24.65" shape-rendering="crispEdges"/><rect fill="#121212" x="902.8" y="294.3" width="12.2" height="24.65" shape-rendering="crispEdges"/><rect fill="#121212" x="915" y="294.3" width="927.2" height="24.65" shape-rendering="crispEdges"/><rect fill="#191919" x="0" y="318.7" width="12.2" height="24.65" shape-rendering="crispEdges"/><rect fill="#1e1e1e" x="12.2" y="318.7" width="890.6" height="24.65" shape-rendering="crispEdges"/><rect fill="#121212" x="902.8" y="318.7" width="12.2" height="24.65" shape-rendering="crispEdges"/><rect fill="#121212" x="915" y="318.7" width="927.2" height="24.65" shape-rendering="crispEdges"/><rect fill="#191919" x="0" y="343.1" width="12.2" height="24.65" shape-rendering="crispEdges"/><rect fill="#1e1e1e" x="12.2" y="343.1" width="890.6" height="24.65" shape-rendering="crispEdges"/><rect fill="#121212" x="902.8" y="343.1" width="12.2" height="24.65" shape-rendering="crispEdges"/><rect fill="#121212" x="915" y="343.1" width="927.2" height="24.65" shape-rendering="crispEdges"/><rect fill="#191919" x="0" y="367.5" width="12.2" height="24.65" shape-rendering="crispEdges"/><rect fill="#1e1e1e" x="12.2" y="367.5" width="24.4" height="24.65" shape-rendering="crispEdges"/><rect fill="#1e1e1e" x="36.6" y="367.5" width="414.8" height="24.65" shape-rendering="crispEdges"/><rect fill="#1e1e1e" x="451.4" y="367.5" width="427" height="24.65" shape-rendering="crispEdges"/><rect fill="#1e1e1e" x="878.4" y="367.5" width="24.4" height="24.65" shape-rendering="crispEdges"/><rect fill="#121212" x="902.8" y="367.5" width="12.2" height="24.65" shape-rendering="crispEdges"/><rect fill="#121212" x="915" y="367.5" width="927.2" height="24.65" shape-rendering="crispEdges"/><rect fill="#191919" x="0" y="391.9" width="12.2" height="24.65" shape-rendering="crispEdges"/><rect fill="#1e1e1e" x="12.2" y="391.9" width="890.6" height="24.65" shape-rendering="crispEdges"/><rect fill="#121212" x="902.8" y="391.9" width="12.2" height="24.65" shape-rendering="crispEdges"/><rect fill="#121212" x="915" y="391.9" width="927.2" height="24.65" shape-rendering="crispEdges"/><rect fill="#272727" x="0" y="416.3" width="195.2" height="24.65" shape-rendering="crispEdges"/><rect fill="#121212" x="195.2" y="416.3" width="719.8" height="24.65" shape-rendering="crispEdges"/><rect fill="#121212" x="915" y="416.3" width="927.2" height="24.65" shape-rendering="crispEdges"/><rect fill="#272727" x="0" y="440.7" width="61" height="24.65" shape-rendering="crispEdges"/><rect fill="#e0e0e0" x="61" y="440.7" width="61" height="24.65" shape-rendering="crispEdges"/><rect fill="#272727" x="122" y="440.7" width="73.2" height="24.65" shape-rendering="crispEdges"/><rect fill="#121212" x="195.2" y="440.7" width="719.8" height="24.65" shape-rendering="crispEdges"/><rect fill="#121212" x="915" y="440.7" width="927.2" height="24.65" shape-rendering="crispEdges"/><rect fill="#272727" x="0" y="465.1" width="195.2" height="24.65" shape-rendering="crispEdges"/><rect fill="#121212" x="195.2" y="465.1" width="719.8" height="24.65" shape-rendering="crispEdges"/><rect fill="#121212" x="915" y="465.1" width="927.2" height="24.65" shape-rendering="crispEdges"/><rect fill="#121212" x="0" y="489.5" width="915" height="24.65" shape-rendering="crispEdges"/><rect fill="#121212" x="915" y="489.5" width="927.2" height="24.65" shape-rendering="crispEdges"/><rect fill="#121212" x="0" y="513.9" width="915" height="24.65" shape-rendering="crispEdges"/><rect fill="#121212" x="915" y="513.9" width="927.2" height="24.65" shape-rendering="crispEdges"/><rect fill="#121212" x="0" y="538.3" width="915" height="24.65" shape-rendering="crispEdges"/><rect fill="#121212" x="915" y="538.3" width="927.2" height="24.65" shape-rendering="crispEdges"/><rect fill="#121212" x="0" y="562.7" width="915" height="24.65" shape-rendering="crispEdges"/><rect fill="#121212" x="915" y="562.7" width="927.2" height="24.65" shape-rendering="crispEdges"/><rect fill="#121212" x="0" y="587.1" width="915" height="24.65" shape-rendering="crispEdges"/><rect fill="#121212" x="915" y="587.1" width="927.2" height="24.65" shape-rendering="crispEdges"/><rect fill="#121212" x="0" y="611.5" width="915" height="24.65" shape-rendering="crispEdges"/><rect fill="#121212" x="915" y="611.5" width="927.2" height="24.65" shape-rendering="crispEdges"/><rect fill="#121212" x="0" y="635.9" width="915" height="24.65" shape-rendering="crispEdges"/><rect fill="#121212" x="915" y="635.9" width="927.2" height="24.65" shape-rendering="crispEdges"/><rect fill="#121212" x="0" y="660.3" width="915" height="24.65" shape-rendering="crispEdges"/><rect fill="#121212" x="915" y="660.3" width="927.2" height="24.65" shape-rendering="crispEdges"/><rect fill="#121212" x="0" y="684.7" width="915" height="24.65" shape-rendering="crispEdges"/><rect fill="#121212" x="915" y="684.7" width="927.2" height="24.65" shape-rendering="crispEdges"/><rect fill="#121212" x="0" y="709.1" width="915" height="24.65" shape-rendering="crispEdges"/><rect fill="#121212" x="915" y="709.1" width="927.2" height="24.65" shape-rendering="crispEdges"/><rect fill="#121212" x="0" y="733.5" width="85.4" height="24.65" shape-rendering="crispEdges"/><rect fill="#121212" x="85.4" y="733.5" width="1756.8" height="24.65" shape-rendering="crispEdges"/><rect fill="#121212" x="0" y="757.9" width="268.4" height="24.65" shape-rendering="crispEdges"/><rect fill="#121212" x="268.4" y="757.9" width="1573.8" height="24.65" shape-rendering="crispEdges"/><rect fill="#242f38" x="0" y="782.3" width="36.6" height="24.65" shape-rendering="crispEdges"/><rect fill="#242f38" x="36.6" y="782.3" width="109.8" height="24.65" shape-rendering="crispEdges"/><rect fill="#242f38" x="146.4" y="782.3" width="36.6" height="24.65" shape-rendering="crispEdges"/><rect fill="#242f38" x="183" y="782.3" width="109.8" height="24.65" shape-rendering="crispEdges"/><rect fill="#242f38" x="292.8" y="782.3" width="36.6" height="24.65" shape-rendering="crispEdges"/><rect fill="#242f38" x="329.4" y="782.3" width="61" height="24.65" shape-rendering="crispEdges"/><rect fill="#242f38" x="390.4" y="782.3" width="1305.4" height="24.65" shape-rendering="crispEdges"/><rect fill="#242f38" x="1695.8" y="782.3" width="12.2" height="24.65" shape-rendering="crispEdges"/><rect fill="#242f38" x="1708" y="782.3" width="24.4" height="24.65" shape-rendering="crispEdges"/><rect fill="#242f38" x="1732.4" y="782.3" width="97.6" height="24.65" shape-rendering="crispEdges"/><rect fill="#242f38" x="1830" y="782.3" width="12.2" height="24.65" shape-rendering="crispEdges"/>
    <g class="terminal-2777689899-matrix">
    <text class="terminal-2777689899-r2" x="12.2" y="20" textLength="12.2" clip-path="url(#terminal-2777689899-line-0)">⭘</text><text class="terminal-2777689899-r2" x="854" y="20" textLength="97.6" clip-path="url(#terminal-2777689899-line-0)">TasksTUI</text><text class="terminal-2777689899-r1" x="1842.2" y="20" textLength="12.2" clip-path="url(#terminal-2777689899-line-0)">
</text><text class="terminal-2777689899-r2" x="0" y="44.4" textLength="97.6" clip-path="url(#terminal-2777689899-line-1)">Add&#160;Task</text><text class="terminal-2777689899-r3" x="915" y="44.4" textLength="219.6" clip-path="url(#terminal-2777689899-line-1)">&#160;ID&#160;&#160;&#160;&#160;&#160;&#160;&#160;&#160;&#160;&#160;&#160;&#160;&#160;&#160;&#160;</text><text class="terminal-2777689899-r3" x="1134.6" y="44.4" textLength="122" clip-path="url(#terminal-2777689899-line-1)">&#160;Priority&#160;</text><text class="terminal-2777689899-r3" x="1256.6" y="44.4" textLength="146.4" clip-path="url(#terminal-2777689899-line-1)">&#160;Deadline&#160;&#160;&#160;</text><text class="terminal-2777689899-r3" x="1403" y="44.4" textLength="158.6" clip-path="url(#terminal-2777689899-line-1)">&#160;Description&#160;</text><text class="terminal-2777689899-r3" x="1561.6" y="44.4" textLength="97.6" clip-path="url(#terminal-2777689899-line-1)">&#160;Status&#160;</text><text class="terminal-2777689899-r1" x="1842.2" y="44.4" textLength="12.2" clip-path="url(#terminal-2777689899-line-1)">
</text><text class="terminal-2777689899-r4" x="0" y="68.8" textLength="12.2" clip-path="url(#terminal-2777689899-line-2)">▊</text><text class="terminal-2777689899-r5" x="12.2" y="68.8" textLength="890.6" clip-path="url(#terminal-2777689899-line-2)">▔▔▔▔▔▔▔▔▔▔▔▔▔▔▔▔▔▔▔▔▔▔▔▔▔▔▔▔▔▔▔▔▔▔▔▔▔▔▔▔▔▔▔▔▔▔▔▔▔▔▔▔▔▔▔▔▔▔▔▔▔▔▔▔▔▔▔▔▔▔▔▔▔</text><text class="terminal-2777689899-r5" x="902.8" y="68.8" textLength="12.2" clip-path="url(#terminal-2777689899-line-2)">▎</text><text class="terminal-2777689899-r2" x="915" y="68.8" textLength="219.6" clip-path="url(#terminal-2777689899-line-2)">&#160;go&#160;to&#160;the&#160;market&#160;</text><text class="terminal-2777689899-r2" x="1134.6" y="68.8" textLength="122" clip-path="url(#terminal-2777689899-line-2)">&#160;Medium&#160;&#160;&#160;</text><text class="terminal-2777689899-r2" x="1256.6" y="68.8" textLength="146.4" clip-path="url(#terminal-2777689899-line-2)">&#160;2025-08-12&#160;</text><text class="terminal-2777689899-r2" x="1403" y="68.8" textLength="158.6" clip-path="url(#terminal-2777689899-line-2)">&#160;personal&#160;&#160;&#160;&#160;</text><text class="terminal-2777689899-r2" x="1561.6" y="68.8" textLength="97.6" clip-path="url(#terminal-2777689899-line-2)">&#160;Todo&#160;&#160;&#160;</text><text class="terminal-2777689899-r1" x="1842.2" y="68.8" textLength="12.2" clip-path="url(#terminal-2777689899-line-2)">
</text><text class="terminal-2777689899-r4" x="0" y="93.2" textLength="12.2" clip-path="url(#terminal-2777689899-line-3)">▊</text><text class="terminal-2777689899-r2" x="36.6" y="93.2" textLength="195.2" clip-path="url(#terminal-2777689899-line-3)">go&#160;to&#160;the&#160;market</text><text class="terminal-2777689899-r5" x="902.8" y="93.2" textLength="12.2" clip-path="url(#terminal-2777689899-line-3)">▎</text><text class="terminal-2777689899-r1" x="1842.2" y="93.2" textLength="12.2" clip-path="url(#terminal-2777689899-line-3)">
</text><text class="terminal-2777689899-r4" x="0" y="117.6" textLength="12.2" clip-path="url(#terminal-2777689899-line-4)">▊</text><text class="terminal-2777689899-r5" x="12.2" y="117.6" textLength="890.6" clip-path="url(#terminal-2777689899-line-4)">▁▁▁▁▁▁▁▁▁▁▁▁▁▁▁▁▁▁▁▁▁▁▁▁▁▁▁▁▁▁▁▁▁▁▁▁▁▁▁▁▁▁▁▁▁▁▁▁▁▁▁▁▁▁▁▁▁▁▁▁▁▁▁▁▁▁▁▁▁▁▁▁▁</text><text class="terminal-2777689899-r5" x="902.8" y="117.6" textLength="12.2" clip-path="url(#terminal-2777689899-line-4)">▎</text><text class="terminal-2777689899-r1" x="1842.2" y="117.6" textLength="12.2" clip-path="url(#terminal-2777689899-line-4)">
</text><text class="terminal-2777689899-r4" x="0" y="142" textLength="12.2" clip-path="url(#terminal-2777689899-line-5)">▊</text><text class="terminal-2777689899-r5" x="12.2" y="142" textLength="890.6" clip-path="url(#terminal-2777689899-line-5)">▔▔▔▔▔▔▔▔▔▔▔▔▔▔▔▔▔▔▔▔▔▔▔▔▔▔▔▔▔▔▔▔▔▔▔▔▔▔▔▔▔▔▔▔▔▔▔▔▔▔▔▔▔▔▔▔▔▔▔▔▔▔▔▔▔▔▔▔▔▔▔▔▔</text><text class="terminal-2777689899-r5" x="902.8" y="142" textLength="12.2" clip-path="url(#terminal-2777689899-line-5)">▎</text><text class="terminal-2777689899-r1" x="1842.2" y="142" textLength="12.2" clip-path="url(#terminal-2777689899-line-5)">
</text><text class="terminal-2777689899-r4" x="0" y="166.4" textLength="12.2" clip-path="url(#terminal-2777689899-line-6)">▊</text><text class="terminal-2777689899-r2" x="36.6" y="166.4" textLength="97.6" clip-path="url(#terminal-2777689899-line-6)">personal</text><text class="terminal-2777689899-r5" x="902.8" y="166.4" textLength="12.2" clip-path="url(#terminal-2777689899-line-6)">▎</text><text class="terminal-2777689899-r1" x="1842.2" y="166.4" textLength="12.2" clip-path="url(#terminal-2777689899-line-6)">
</text><text class="terminal-2777689899-r4" x="0" y="190.8" textLength="12.2" clip-path="url(#terminal-2777689899-line-7)">▊</text><text class="terminal-2777689899-r5" x="12.2" y="190.8" textLength="890.6" clip-path="url(#terminal-2777689899-line-7)">▁▁▁▁▁▁▁▁▁▁▁▁▁▁▁▁▁▁▁▁▁▁▁▁▁▁▁▁▁▁▁▁▁▁▁▁▁▁▁▁▁▁▁▁▁▁▁▁▁▁▁▁▁▁▁▁▁▁▁▁▁▁▁▁▁▁▁▁▁▁▁▁▁</text><text class="terminal-2777689899-r5" x="902.8" y="190.8" textLength="12.2" clip-path="url(#terminal-2777689899-line-7)">▎</text><text class="terminal-2777689899-r1" x="1842.2" y="190.8" textLength="12.2" clip-path="url(#terminal-2777689899-line-7)">
</text><text class="terminal-2777689899-r4" x="0" y="215.2" textLength="12.2" clip-path="url(#terminal-2777689899-line-8)">▊</text><text class="terminal-2777689899-r5" x="12.2" y="215.2" textLength="890.6" clip-path="url(#terminal-2777689899-line-8)">▔▔▔▔▔▔▔▔▔▔▔▔▔▔▔▔▔▔▔▔▔▔▔▔▔▔▔▔▔▔▔▔▔▔▔▔▔▔▔▔▔▔▔▔▔▔▔▔▔▔▔▔▔▔▔▔▔▔▔▔▔▔▔▔▔▔▔▔▔▔▔▔▔</text><text class="terminal-2777689899-r5" x="902.8" y="215.2" textLength="12.2" clip-path="url(#terminal-2777689899-line-8)">▎</text><text class="terminal-2777689899-r1" x="1842.2" y="215.2" textLength="12.2" clip-path="url(#terminal-2777689899-line-8)">
</text><text class="terminal-2777689899-r4" x="0" y="239.6" textLength="12.2" clip-path="url(#terminal-2777689899-line-9)">▊</text><text class="terminal-2777689899-r2" x="36.6" y="239.6" textLength="122" clip-path="url(#terminal-2777689899-line-9)">2025-08-12</text><text class="terminal-2777689899-r5" x="902.8" y="239.6" textLength="12.2" clip-path="url(#terminal-2777689899-line-9)">▎</text><text class="terminal-2777689899-r1" x="1842.2" y="239.6" textLength="12.2" clip-path="url(#terminal-2777689899-line-9)">
</text><text class="terminal-2777689899-r4" x="0" y="264" textLength="12.2" clip-path="url(#terminal-2777689899-line-10)">▊</text><text class="terminal-2777689899-r5" x="12.2" y="264" textLength="890.6" clip-path="url(#terminal-2777689899-line-10)">▁▁▁▁▁▁▁▁▁▁▁▁▁▁▁▁▁▁▁▁▁▁▁▁▁▁▁▁▁▁▁▁▁▁▁▁▁▁▁▁▁▁▁▁▁▁▁▁▁▁▁▁▁▁▁▁▁▁▁▁▁▁▁▁▁▁▁▁▁▁▁▁▁</text><text class="terminal-2777689899-r5" x="902.8" y="264" textLength="12.2" clip-path="url(#terminal-2777689899-line-10)">▎</text><text class="terminal-2777689899-r1" x="1842.2" y="264" textLength="12.2" clip-path="url(#terminal-2777689899-line-10)">
</text><text class="terminal-2777689899-r4" x="0" y="288.4" textLength="12.2" clip-path="url(#terminal-2777689899-line-11)">▊</text><text class="terminal-2777689899-r5" x="12.2" y="288.4" textLength="890.6" clip-path="url(#terminal-2777689899-line-11)">▔▔▔▔▔▔▔▔▔▔▔▔▔▔▔▔▔▔▔▔▔▔▔▔▔▔▔▔▔▔▔▔▔▔▔▔▔▔▔▔▔▔▔▔▔▔▔▔▔▔▔▔▔▔▔▔▔▔▔▔▔▔▔▔▔▔▔▔▔▔▔▔▔</text><text class="terminal-2777689899-r5" x="902.8" y="288.4" textLength="12.2" clip-path="url(#terminal-2777689899-line-11)">▎</text><text class="terminal-2777689899-r1" x="1842.2" y="288.4" textLength="12.2" clip-path="url(#terminal-2777689899-line-11)">
</text><text class="terminal-2777689899-r4" x="0" y="312.8" textLength="12.2" clip-path="url(#terminal-2777689899-line-12)">▊</text><text class="terminal-2777689899-r2" x="36.6" y="312.8" textLength="73.2" clip-path="url(#terminal-2777689899-line-12)">Medium</text><text class="terminal-2777689899-r6" x="866.2" y="312.8" textLength="12.2" clip-path="url(#terminal-2777689899-line-12)">▼</text><text class="terminal-2777689899-r5" x="902.8" y="312.8" textLength="12.2" clip-path="url(#terminal-2777689899-line-12)">▎</text><text class="terminal-2777689899-r1" x="1842.2" y="312.8" textLength="12.2" clip-path="url(#terminal-2777689899-line-12)">
</text><text class="terminal-2777689899-r4" x="0" y="337.2" textLength="12.2" clip-path="url(#terminal-2777689899-line-13)">▊</text><text class="terminal-2777689899-r5" x="12.2" y="337.2" textLength="890.6" clip-path="url(#terminal-2777689899-line-13)">▁▁▁▁▁▁▁▁▁▁▁▁▁▁▁▁▁▁▁▁▁▁▁▁▁▁▁▁▁▁▁▁▁▁▁▁▁▁▁▁▁▁▁▁▁▁▁▁▁▁▁▁▁▁▁▁▁▁▁▁▁▁▁▁▁▁▁▁▁▁▁▁▁</text><text class="terminal-2777689899-r5" x="902.8" y="337.2" textLength="12.2" clip-path="url(#terminal-2777689899-line-13)">▎</text><text class="terminal-2777689899-r1" x="1842.2" y="337.2" textLength="12.2" clip-path="url(#terminal-2777689899-line-13)">
</text><text class="terminal-2777689899-r4" x="0" y="361.6" textLength="12.2" clip-path="url(#terminal-2777689899-line-14)">▊</text><text class="terminal-2777689899-r5" x="12.2" y="361.6" textLength="890.6" clip-path="url(#terminal-2777689899-line-14)">▔▔▔▔▔▔▔▔▔▔▔▔▔▔▔▔▔▔▔▔▔▔▔▔▔▔▔▔▔▔▔▔▔▔▔▔▔▔▔▔▔▔▔▔▔▔▔▔▔▔▔▔▔▔▔▔▔▔▔▔▔▔▔▔▔▔▔▔▔▔▔▔▔</text><text class="terminal-2777689899-r5" x="902.8" y="361.6" textLength="12.2" clip-path="url(#terminal-2777689899-line-14)">▎</text><text class="terminal-2777689899-r1" x="1842.2" y="361.6" textLength="12.2" clip-path="url(#terminal-2777689899-line-14)">
</text><text class="terminal-2777689899-r4" x="0" y="386" textLength="12.2" clip-path="url(#terminal-2777689899-line-15)">▊</text><text class="terminal-2777689899-r7" x="36.6" y="386" textLength="414.8" clip-path="url(#terminal-2777689899-line-15)">Dependencies&#160;(space-separated&#160;IDs)</text><text class="terminal-2777689899-r5" x="902.8" y="386" textLength="12.2" clip-path="url(#terminal-2777689899-line-15)">▎</text><text class="terminal-2777689899-r1" x="1842.2" y="386" textLength="12.2" clip-path="url(#terminal-2777689899-line-15)">
</text><text class="terminal-2777689899-r4" x="0" y="410.4" textLength="12.2" clip-path="url(#terminal-2777689899-line-16)">▊</text><text class="terminal-2777689899-r5" x="12.2" y="410.4" textLength="890.6" clip-path="url(#terminal-2777689899-line-16)">▁▁▁▁▁▁▁▁▁▁▁▁▁▁▁▁▁▁▁▁▁▁▁▁▁▁▁▁▁▁▁▁▁▁▁▁▁▁▁▁▁▁▁▁▁▁▁▁▁▁▁▁▁▁▁▁▁▁▁▁▁▁▁▁▁▁▁▁▁▁▁▁▁</text><text class="terminal-2777689899-r5" x="902.8" y="410.4" textLength="12.2" clip-path="url(#terminal-2777689899-line-16)">▎</text><text class="terminal-2777689899-r1" x="1842.2" y="410.4" textLength="12.2" clip-path="url(#terminal-2777689899-line-16)">
</text><text class="terminal-2777689899-r8" x="0" y="434.8" textLength="195.2" clip-path="url(#terminal-2777689899-line-17)">▔▔▔▔▔▔▔▔▔▔▔▔▔▔▔▔</text><text class="terminal-2777689899-r1" x="1842.2" y="434.8" textLength="12.2" clip-path="url(#terminal-2777689899-line-17)">
</text><text class="terminal-2777689899-r9" x="61" y="459.2" textLength="61" clip-path="url(#terminal-2777689899-line-18)">&#160;Add&#160;</text><text class="terminal-2777689899-r1" x="1842.2" y="459.2" textLength="12.2" clip-path="url(#terminal-2777689899-line-18)">
</text><text class="terminal-2777689899-r10" x="0" y="483.6" textLength="195.2" clip-path="url(#terminal-2777689899-line-19)">▁▁▁▁▁▁▁▁▁▁▁▁▁▁▁▁</text><text class="terminal-2777689899-r1" x="1842.2" y="483.6" textLength="12.2" clip-path="url(#terminal-2777689899-line-19)">
</text><text class="terminal-2777689899-r1" x="1842.2" y="508" textLength="12.2" clip-path="url(#terminal-2777689899-line-20)">
</text><text class="terminal-2777689899-r1" x="1842.2" y="532.4" textLength="12.2" clip-path="url(#terminal-2777689899-line-21)">
</text><text class="terminal-2777689899-r1" x="1842.2" y="556.8" textLength="12.2" clip-path="url(#terminal-2777689899-line-22)">
</text><text class="terminal-2777689899-r1" x="1842.2" y="581.2" textLength="12.2" clip-path="url(#terminal-2777689899-line-23)">
</text><text class="terminal-2777689899-r1" x="1842.2" y="605.6" textLength="12.2" clip-path="url(#terminal-2777689899-line-24)">
</text><text class="terminal-2777689899-r1" x="1842.2" y="630" textLength="12.2" clip-path="url(#terminal-2777689899-line-25)">
</text><text class="terminal-2777689899-r1" x="1842.2" y="654.4" textLength="12.2" clip-path="url(#terminal-2777689899-line-26)">
</text><text class="terminal-2777689899-r1" x="1842.2" y="678.8" textLength="12.2" clip-path="url(#terminal-2777689899-line-27)">
</text><text class="terminal-2777689899-r1" x="1842.2" y="703.2" textLength="12.2" clip-path="url(#terminal-2777689899-line-28)">
</text><text class="terminal-2777689899-r1" x="1842.2" y="727.6" textLength="12.2" clip-path="url(#terminal-2777689899-line-29)">
</text><text class="terminal-2777689899-r2" x="0" y="752" textLength="85.4" clip-path="url(#terminal-2777689899-line-30)">Output:</text><text class="terminal-2777689899-r1" x="1842.2" y="752" textLength="12.2" clip-path="url(#terminal-2777689899-line-30)">
</text><text class="terminal-2777689899-r2" x="0" y="776.4" textLength="268.4" clip-path="url(#terminal-2777689899-line-31)">Added&#160;go&#160;to&#160;the&#160;market</text><text class="terminal-2777689899-r1" x="1842.2" y="776.4" textLength="12.2" clip-path="url(#terminal-2777689899-line-31)">
</text><text class="terminal-2777689899-r11" x="0" y="800.8" textLength="36.6" clip-path="url(#terminal-2777689899-line-32)">&#160;a&#160;</text><text class="terminal-2777689899-r2" x="36.6" y="800.8" textLength="109.8" clip-path="url(#terminal-2777689899-line-32)">Add&#160;Task&#160;</text><text class="terminal-2777689899-r11" x="146.4" y="800.8" textLength="36.6" clip-path="url(#terminal-2777689899-line-32)">&#160;s&#160;</text><text class="terminal-2777689899-r2" x="183" y="800.8" textLength="109.8" clip-path="url(#terminal-2777689899-line-32)">Schedule&#160;</text><text class="terminal-2777689899-r11" x="292.8" y="800.8" textLength="36.6" clip-path="url(#terminal-2777689899-line-32)">&#160;q&#160;</text><text class="terminal-2777689899-r2" x="329.4" y="800.8" textLength="61" clip-path="url(#terminal-2777689899-line-32)">Quit&#160;</text><text class="terminal-2777689899-r12" x="1695.8" y="800.8" textLength="12.2" clip-path="url(#terminal-2777689899-line-32)">▏</text><text class="terminal-2777689899-r11" x="1708" y="800.8" textLength="24.4" clip-path="url(#terminal-2777689899-line-32)">^p</text><text class="terminal-2777689899-r2" x="1732.4" y="800.8" textLength="97.6" clip-path="url(#terminal-2777689899-line-32)">&#160;palette</text>
    </g>
    </g>
</svg>
